<svg width="29" height="29" viewBox="0 0 29 29" fill="none" xmlns="http://www.w3.org/2000/svg">
<path d="M14.5 0C6.52499 0 0 6.53665 0 14.5874C0 21.8665 5.30699 27.9081 12.238 29V18.8092H8.55499V14.5874H12.238V11.37C12.238 7.71586 14.3985 5.70683 17.719 5.70683C19.2995 5.70683 20.9525 5.98343 20.9525 5.98343V9.57932H19.1255C17.3275 9.57932 16.762 10.7003 16.762 11.8504V14.5874H20.793L20.1405 18.8092H16.762V29C20.1788 28.4582 23.2902 26.7078 25.5344 24.0648C27.7786 21.4219 29.0077 18.0604 29 14.5874C29 6.53665 22.475 0 14.5 0V0Z" fill="black"/>
</svg>
