<svg width="18" height="22" viewBox="0 0 18 22" fill="none" xmlns="http://www.w3.org/2000/svg">
<path d="M7 16.0543V12.8435H0V8.56231H7V5.35144L12 10.7029L7 16.0543ZM7 0H16C16.5304 0 17.0391 0.225524 17.4142 0.62696C17.7893 1.0284 18 1.57286 18 2.14058V19.2652C18 19.8329 17.7893 20.3774 17.4142 20.7788C17.0391 21.1802 16.5304 21.4058 16 21.4058H7C6.46957 21.4058 5.96086 21.1802 5.58579 20.7788C5.21071 20.3774 5 19.8329 5 19.2652V17.1246H7V19.2652H16V2.14058H7V4.28115H5V2.14058C5 1.57286 5.21071 1.0284 5.58579 0.62696C5.96086 0.225524 6.46957 0 7 0Z" fill="#656DF1"/>
</svg>
