<svg width="99" height="36" viewBox="0 0 99 36" fill="none" xmlns="http://www.w3.org/2000/svg">
<path d="M10.044 17.784C9.036 16.776 7.668 16.2 6.228 16.2C5.22 16.2 4.392 15.372 4.392 14.364C4.392 13.356 5.22 12.528 6.228 12.528C7.092 12.528 7.704 12.924 7.92 13.5C8.244 14.4 9.072 15.048 10.044 14.832C11.016 14.652 11.592 13.68 11.412 12.708C11.052 10.692 8.748 8.964 6.228 8.964C3.24 8.964 0.828 11.376 0.828 14.364C0.828 15.804 1.368 17.172 2.412 18.18C3.42 19.188 4.788 19.764 6.228 19.764C7.236 19.764 8.064 20.592 8.064 21.6C8.064 22.644 7.236 23.472 6.228 23.472C5.364 23.472 4.932 23.328 4.428 22.392C3.96 21.492 3.276 20.808 2.304 20.988C1.368 21.204 0.612 22.176 0.936 23.112C1.62 25.2 3.672 27.036 6.228 27.036C9.216 27.036 11.628 24.588 11.628 21.6C11.628 20.16 11.088 18.828 10.044 17.784ZM25.3333 9C20.2573 9 16.2253 13.032 16.2253 18.108C16.2253 23.184 20.2573 26.964 25.3333 26.964C27.3853 26.964 29.1133 26.46 30.6613 25.164C30.6613 26.208 31.6693 26.964 32.3893 26.964C33.4333 26.964 34.1893 26.208 34.1893 25.164V18.108C34.1893 13.032 30.4093 9 25.3333 9ZM25.3333 23.436C22.3093 23.436 19.7533 21.132 19.7533 18.108C19.7533 15.084 22.3093 12.528 25.3333 12.528C28.3573 12.528 30.6613 15.084 30.6613 18.108C30.6613 21.132 28.3573 23.436 25.3333 23.436ZM47.5178 8.928H44.3498C44.3498 7.308 44.8538 5.904 45.9338 4.824C46.5458 4.212 47.2298 3.78 47.9858 3.528C48.9218 3.204 49.3898 2.16 49.0658 1.26C48.7418 0.323998 47.6978 -0.180002 46.7978 0.179998C45.5018 0.611999 44.3858 1.332 43.4138 2.304C41.6858 4.032 40.7498 6.372 40.7858 8.928H38.8058C37.8338 8.928 37.0418 9.72 37.0418 10.692C37.0418 11.7 37.8338 12.492 38.8058 12.492H40.7858V25.2C40.7858 26.208 41.5778 27 42.5498 27C43.5578 27 44.3498 26.208 44.3498 25.2V12.492H47.5178C48.5258 12.492 49.3178 11.7 49.3178 10.692C49.3178 9.72 48.5258 8.928 47.5178 8.928ZM61.099 8.928C56.095 8.928 52.063 12.96 52.063 17.964C52.063 22.932 56.095 27 61.099 27C62.431 27 64.267 27.036 66.643 25.452C67.471 24.912 67.939 23.976 67.507 23.076C67.075 22.212 65.959 21.708 65.131 22.248C63.403 23.364 61.927 23.436 61.099 23.436C58.687 23.436 56.671 21.888 55.915 19.728H68.335C69.343 19.728 70.135 18.936 70.135 17.964C70.135 12.096 65.455 8.928 61.099 8.928ZM61.099 12.492C63.259 12.492 65.563 13.644 66.319 16.164H55.915C56.671 14.04 58.687 12.492 61.099 12.492ZM77.0141 27.036C77.9861 27.036 78.7781 26.244 78.7781 25.236V1.8C78.7781 0.827998 77.9861 0.0359995 77.0141 0.0359995C76.0061 0.0359995 75.2141 0.827998 75.2141 1.8V25.236C75.2141 26.244 76.0061 27.036 77.0141 27.036ZM96.4229 9.072C95.4509 9.072 94.6589 9.864 94.6589 10.836V19.764C94.6589 21.816 93.0029 23.472 90.9509 23.472C88.9349 23.472 87.2429 21.816 87.2429 19.764V10.836C87.2429 9.864 86.4509 9.072 85.4789 9.072C84.5069 9.072 83.7149 9.864 83.7149 10.836V19.8C83.7149 19.8 83.7149 19.8 83.7149 19.836C83.7509 23.796 86.9909 27 90.9509 27C92.3189 27 93.5789 26.64 94.6589 25.992V28.584C94.6589 30.708 92.9309 32.436 90.7709 32.436C89.2949 32.436 87.9629 31.608 87.2789 30.276C86.8829 29.412 85.8029 29.016 84.9389 29.448C84.0389 29.88 83.6789 30.96 84.1109 31.824C85.3709 34.38 87.9269 36 90.7709 36C94.8749 36 98.2229 32.652 98.2229 28.584V10.836C98.2229 9.864 97.4309 9.072 96.4229 9.072Z" fill="#11182C"/>
</svg>
