<svg width="29" height="29" viewBox="0 0 29 29" fill="none" xmlns="http://www.w3.org/2000/svg">
<path d="M18.9515 0H10.0485C1.9285 0 0 1.9285 0 10.0485V18.9515C0 27.0715 1.9285 29 10.0485 29H18.9515C27.0715 29 29 27.0715 29 18.9515V10.0485C29 1.9285 27.0715 0 18.9515 0ZM23.4175 20.6915H21.3005C20.503 20.6915 20.2565 20.039 18.85 18.6035C17.574 17.4 17.023 17.226 16.7185 17.226C16.298 17.226 16.1675 17.342 16.1675 17.951V19.8505C16.1675 20.358 16.008 20.677 14.6595 20.677C12.4265 20.677 9.947 19.314 8.207 16.8055C5.5825 13.1225 4.872 10.3385 4.872 9.7875C4.872 9.483 4.9735 9.193 5.5825 9.193H7.714C8.2505 9.193 8.4535 9.425 8.6565 10.005C9.7005 13.05 11.4405 15.66 12.151 15.66C12.4265 15.66 12.5425 15.5295 12.5425 14.8625V11.745C12.47 10.324 11.7015 10.1935 11.7015 9.686C11.7015 9.425 11.9045 9.193 12.238 9.193H15.5585C16.008 9.193 16.1675 9.425 16.1675 9.976V14.1665C16.1675 14.616 16.356 14.7755 16.501 14.7755C16.762 14.7755 16.994 14.616 17.4725 14.123C18.995 12.4265 20.0825 9.802 20.0825 9.802C20.2275 9.4975 20.4595 9.2075 21.025 9.2075H23.0985C23.7365 9.2075 23.8815 9.541 23.7365 9.9905C23.4755 11.223 20.8945 14.8625 20.9235 14.8625C20.6915 15.225 20.6045 15.3845 20.9235 15.805C21.141 16.1095 21.8805 16.7475 22.3735 17.313C23.2725 18.3425 23.9685 19.198 24.157 19.7925C24.3165 20.387 24.0265 20.6915 23.4175 20.6915Z" fill="black"/>
</svg>
